<svg xmlns="http://www.w3.org/2000/svg" viewBox="0.0 0.0 24.0 24.0" height="200px" width="200px"><path fill="none" stroke="black" stroke-width=".3" stroke-opacity="1.0" filling="0" d="M18.581249237060547 7.106250286102295 L18.581249237060547 7.106250286102295 C19.786895751953125 8.900364875793457 20.736398696899414 10.599370002746582 20.268749237060547 12.84375 C19.772235870361328 15.22665023803711 17.9788761138916 16.892663955688477 15.877418518066406 17.53072738647461 C13.775959968566895 18.168790817260742 11.36640453338623 17.77890396118164 9.637499809265137 16.049999237060547 C7.908595085144043 14.321094512939453 7.518708229064941 11.911539077758789 8.15677261352539 9.810081481933594 C8.79483699798584 7.708623886108398 10.460851669311523 5.915263652801514 12.84375 5.418750286102295 C15.088130950927734 4.951098918914795 16.787132263183594 5.9006028175354 18.581249237060547 7.106250286102295 L18.581249237060547 7.106250286102295"></path>
<path fill="none" stroke="black" stroke-width=".3" stroke-opacity="1.0" filling="0" d="M11.662500381469727 8.118749618530273 L11.662500381469727 8.118749618530273 C12.340885162353516 8.361030578613281 13.005058288574219 8.836357116699219 13.350000381469727 9.46875 L9.890625 9.46875 C10.246183395385742 8.816893577575684 10.95808219909668 8.353555679321289 11.662500381469727 8.118749618530273 L11.662500381469727 8.118749618530273"></path>
<path fill="none" stroke="black" stroke-width=".3" stroke-opacity="1.0" filling="0" d="M16.556249618530273 8.118749618530273 L16.556249618530273 8.118749618530273 C17.26066780090332 8.353555679321289 17.972566604614258 8.816893577575684 18.328125 9.46875 L14.784375190734863 9.46875 C15.139932632446289 8.816893577575684 15.851832389831543 8.353555679321289 16.556249618530273 8.118749618530273 L16.556249618530273 8.118749618530273"></path>
<path fill="none" stroke="black" stroke-width=".3" stroke-opacity="1.0" filling="0" d="M11.15625 11.15625 L11.15625 11.15625 C11.397981643676758 12.626788139343262 11.397981643676758 13.735713005065918 11.15625 15.206250190734863 L11.15625 15.206250190734863"></path>
<path fill="none" stroke="black" stroke-width=".3" stroke-opacity="1.0" filling="0" d="M17.146875381469727 11.15625 L17.146875381469727 11.15625 C16.834625244140625 12.67586612701416 16.834625244140625 13.686633110046387 17.146875381469727 15.206250190734863 L17.146875381469727 15.206250190734863"></path>
<path fill="none" stroke="black" stroke-width=".3" stroke-opacity="1.0" filling="0" d="M16.893749237060547 13.012499809265137 L16.893749237060547 13.012499809265137 C14.867903709411621 13.482261657714844 13.273750305175781 13.436676979064941 11.240625381469727 13.012499809265137 L11.240625381469727 13.012499809265137"></path></svg>